<svg width="31" height="30" viewBox="0 0 31 30" fill="none" xmlns="http://www.w3.org/2000/svg">
<path d="M25.7576 1.29035C24.6791 0.658076 23.4884 0.247643 22.2535 0.0824903C21.0186 -0.0826622 19.7638 0.000700833 18.5607 0.327819C17.3576 0.654937 16.2297 1.2194 15.2416 1.98898C14.2534 2.75857 13.4242 3.71819 12.8014 4.81305L12.4449 5.44079C12.3243 5.65281 12.2916 5.90478 12.3541 6.14127C12.4165 6.37775 12.5689 6.57938 12.7778 6.7018L19.7515 10.7895L15.93 17.5782C15.6379 17.551 15.3447 17.5374 15.0514 17.5376C11.4372 17.5376 8.29411 19.6147 6.25873 22.6204L6.32603 22.6167C6.91773 22.5926 7.50109 22.7646 7.98803 23.1066C8.47498 23.4487 8.83906 23.9423 9.02532 24.5129C9.65831 26.4551 11.9029 26.3185 12.4704 24.6421C12.6547 24.096 13.0026 23.622 13.4654 23.2864C13.9282 22.9508 14.4827 22.7704 15.0514 22.7704C15.6202 22.7704 16.1747 22.9508 16.6375 23.2864C17.1002 23.622 17.4481 24.096 17.6325 24.6421C18.1982 26.3185 20.4446 26.4551 21.0775 24.5129C21.2674 23.9315 21.6417 23.4304 22.142 23.088C22.6422 22.7456 23.2402 22.5812 23.8423 22.6204C22.3472 20.4104 20.2536 18.7045 17.8126 17.9549L21.3267 11.7126L27.6293 15.4052C27.8382 15.5276 28.0864 15.5607 28.3194 15.4974C28.5524 15.434 28.751 15.2793 28.8717 15.0673L29.23 14.4396C30.4873 12.2285 30.8278 9.60096 30.1766 7.13504C29.5254 4.66911 27.9359 2.56674 25.7576 1.29035ZM7.29916 25.0926C7.23682 24.9027 7.11536 24.7384 6.95307 24.6247C6.79077 24.511 6.59645 24.4538 6.39939 24.462C6.20233 24.4701 6.01321 24.543 5.86054 24.6698C5.70788 24.7965 5.59993 24.9702 5.55298 25.1646C5.24377 26.4459 4.65807 27.1493 3.99052 27.5592C3.29206 27.9857 2.4026 28.1519 1.40946 28.1519C1.16826 28.1519 0.936934 28.2491 0.766376 28.4223C0.595818 28.5954 0.5 28.8302 0.5 29.075C0.5 29.3198 0.595818 29.5547 0.766376 29.7278C0.936934 29.9009 1.16826 29.9982 1.40946 29.9982C2.56994 29.9982 3.8341 29.8098 4.93091 29.1396C5.58472 28.7387 6.13573 28.1864 6.53884 27.5278C8.70883 30.336 12.9451 30.3231 15.0514 27.4983C17.1923 30.3674 21.5268 30.336 23.6641 27.3931C24.2444 28.1952 25.0013 28.8486 25.8745 29.3013C26.7477 29.7539 27.713 29.9931 28.6934 30C28.9346 30 29.1659 29.9027 29.3365 29.7296C29.507 29.5565 29.6029 29.3217 29.6029 29.0769C29.6029 28.832 29.507 28.5972 29.3365 28.4241C29.1659 28.251 28.9346 28.1537 28.6934 28.1537C26.9054 28.1537 25.1228 26.9721 24.5335 25.1037C24.4747 24.9186 24.3598 24.7572 24.2052 24.6424C24.0507 24.5275 23.8643 24.4652 23.6728 24.4641C23.4813 24.4631 23.2943 24.5235 23.1386 24.6367C22.9828 24.7499 22.8663 24.9101 22.8055 25.0944C21.636 28.6744 17.0577 28.6282 15.9118 25.2421C15.8503 25.0601 15.7344 24.9021 15.5801 24.7902C15.4259 24.6784 15.241 24.6182 15.0514 24.6182C14.8619 24.6182 14.677 24.6784 14.5228 24.7902C14.3685 24.9021 14.2525 25.0601 14.1911 25.2421C13.0452 28.6282 8.46691 28.6744 7.29734 25.0944" fill="#574A4D"/>
</svg>