<?xml version="1.0" standalone="no"?>
<!DOCTYPE svg PUBLIC "-//W3C//DTD SVG 20010904//EN"
 "http://www.w3.org/TR/2001/REC-SVG-20010904/DTD/svg10.dtd">
<svg version="1.0" xmlns="http://www.w3.org/2000/svg"
 width="120.000000pt" height="120.000000pt" viewBox="0 0 120.000000 120.000000"
 preserveAspectRatio="xMidYMid meet">

<g transform="translate(0.000000,120.000000) scale(0.100000,-0.100000)"
fill="#000000" stroke="none">
<path d="M568 879 c-10 -5 -18 -19 -18 -29 0 -13 -14 -27 -39 -40 -22 -11 -52
-36 -68 -57 -26 -34 -28 -44 -33 -159 -5 -117 -6 -124 -32 -151 -16 -16 -28
-34 -28 -41 0 -9 63 -12 250 -12 178 0 250 3 250 11 0 6 -13 27 -30 46 -29 33
-30 36 -30 139 0 85 -4 112 -20 144 -19 38 -66 80 -102 93 -10 4 -18 15 -18
26 0 34 -47 51 -82 30z"/>
<path d="M550 345 c0 -24 45 -40 75 -27 44 20 31 42 -25 42 -38 0 -50 -4 -50
-15z"/>
</g>
</svg>
