<?xml version="1.0" standalone="no"?>
<!DOCTYPE svg PUBLIC "-//W3C//DTD SVG 20010904//EN"
 "http://www.w3.org/TR/2001/REC-SVG-20010904/DTD/svg10.dtd">
<svg version="1.0" xmlns="http://www.w3.org/2000/svg"
 width="360.000000pt" height="268.000000pt" viewBox="0 0 360.000000 268.000000"
 preserveAspectRatio="xMidYMid meet">

<g transform="translate(0.000000,268.000000) scale(0.100000,-0.100000)"
fill="#000000" stroke="none">
<path d="M420 1330 c0 -889 -2 -1036 -15 -1066 -13 -32 -13 -38 3 -60 9 -13
20 -24 25 -24 4 0 54 -39 112 -86 58 -47 110 -82 116 -78 15 9 5 55 -26 115
l-24 49 119 0 c100 0 120 -3 120 -15 0 -12 14 -15 63 -17 l62 -2 -57 -3 -58
-4 0 -58 0 -58 53 -7 c28 -3 103 -6 165 -6 111 0 113 1 110 22 -3 21 -81 86
-104 87 -13 1 -24 23 -24 47 0 12 152 14 1060 14 l1060 0 0 1090 0 1090 -1380
0 -1380 0 0 -1030z m180 855 c0 -8 -4 -15 -10 -15 -5 0 -10 7 -10 15 0 8 5 15
10 15 6 0 10 -7 10 -15z m50 0 c0 -8 -4 -15 -9 -15 -13 0 -22 16 -14 24 11 11
23 6 23 -9z m2408 -947 l-3 -913 -994 0 -994 0 -2 260 c-1 143 -5 290 -10 327
-8 67 -8 67 19 74 29 7 30 14 20 125 -7 66 -7 67 -44 78 -20 6 -55 24 -78 41
l-41 29 31 70 c29 67 32 70 59 64 34 -6 34 -4 18 97 -13 74 -29 85 -29 19 l0
-40 -47 3 -48 3 -6 115 c-4 63 -12 138 -18 165 -7 28 -10 69 -6 92 3 25 2 44
-5 48 -12 8 -13 45 -1 45 5 0 12 -6 15 -12 3 -9 8 -8 16 5 6 9 21 17 34 17 14
0 28 10 36 25 7 13 17 22 22 19 4 -3 8 2 8 10 0 39 -71 66 -120 46 -37 -15
-60 -65 -60 -129 0 -38 -5 -56 -20 -71 -23 -23 -26 -61 -8 -90 10 -16 9 -24
-11 -51 -13 -18 -17 -28 -10 -24 11 6 12 5 2 -6 -7 -7 -13 -26 -13 -42 0 -37
-24 -132 -56 -222 -36 -99 -84 -290 -84 -331 0 -26 8 -42 28 -62 l29 -27 -12
-119 c-12 -108 -17 -126 -58 -210 -84 -167 -76 -231 -77 677 l0 807 1260 0
1260 0 -2 -912z m-2202 -905 c-7 -16 -176 -19 -176 -3 0 6 24 59 54 118 29 59
68 145 87 191 l34 84 3 -189 c1 -104 0 -194 -2 -201z m-358 -32 c28 -21 49
-40 46 -43 -3 -3 9 -10 25 -16 27 -10 44 -32 24 -32 -11 0 -147 109 -151 121
-6 15 2 11 56 -30z m-48 -56 c0 -8 -5 -17 -11 -21 -16 -9 -30 18 -17 33 12 15
28 8 28 -12z m557 -101 c-3 -3 -12 -4 -19 -1 -8 3 -5 6 6 6 11 1 17 -2 13 -5z
m-101 -90 c-5 -13 -10 -14 -18 -6 -6 6 -8 18 -4 28 5 13 10 14 18 6 6 -6 8
-18 4 -28z"/>
<path d="M1353 1945 c0 -22 2 -30 4 -17 2 12 2 30 0 40 -3 9 -5 -1 -4 -23z"/>
<path d="M990 1918 c0 -19 2 -20 10 -8 13 19 13 30 0 30 -5 0 -10 -10 -10 -22z"/>
<path d="M1100 1656 l0 -275 30 -21 c38 -27 38 -40 -1 -40 -39 0 -34 -19 12
-42 30 -16 65 -18 277 -18 l242 0 0 335 0 335 -113 0 c-112 0 -114 0 -125 -26
-7 -14 -16 -23 -21 -20 -5 3 -12 -1 -15 -10 -3 -8 -14 -14 -23 -12 -10 1 -24
-1 -32 -6 -8 -5 -16 -4 -21 3 -4 7 -13 11 -21 9 -10 -2 -14 6 -13 30 l2 32
-89 0 -89 0 0 -274z"/>
<path d="M1311 1914 c0 -11 3 -14 6 -6 3 7 2 16 -1 19 -3 4 -6 -2 -5 -13z"/>
<path d="M1022 1896 c4 -5 -2 -22 -13 -37 -23 -33 -67 -39 -93 -13 -9 8 -16
11 -16 5 0 -6 16 -26 35 -46 41 -40 95 -152 95 -196 0 -21 4 -27 15 -22 13 5
16 28 14 144 -1 128 -3 139 -22 156 -12 10 -19 14 -15 9z"/>
<path d="M1820 1713 c-31 -12 -70 -45 -81 -66 l-10 -22 19 22 c77 88 192 81
253 -16 16 -25 29 -40 29 -34 0 17 -43 75 -72 96 -27 20 -109 32 -138 20z"/>
<path d="M1705 1590 c-3 -5 -1 -10 4 -10 6 0 11 5 11 10 0 6 -2 10 -4 10 -3 0
-8 -4 -11 -10z"/>
<path d="M2032 1560 c0 -14 2 -19 5 -12 2 6 2 18 0 25 -3 6 -5 1 -5 -13z"/>
<path d="M2040 1524 c0 -3 11 -9 25 -14 52 -20 81 -110 54 -163 -25 -48 -48
-57 -156 -57 l-103 0 0 29 c0 26 4 30 30 33 l30 3 -56 70 c-31 39 -59 70 -64
70 -13 0 -100 -113 -100 -129 0 -9 9 -16 20 -16 31 0 28 -57 -2 -63 l-23 -4
23 -2 c20 -1 22 -6 22 -61 l0 -60 60 0 60 0 0 60 0 60 104 0 c88 0 107 3 128
20 56 44 63 138 13 190 -24 25 -65 46 -65 34z"/>
<path d="M1600 1140 l0 -70 200 0 200 0 0 65 c0 78 -18 88 -22 13 l-3 -53
-175 0 -175 0 -3 58 c-4 81 -22 71 -22 -13z"/>
<path d="M1230 620 l0 -30 350 0 c371 0 361 -1 344 44 -5 14 -46 16 -350 16
l-344 0 0 -30z"/>
<path d="M3200 1036 c0 -133 0 -135 35 -207 22 -47 35 -88 35 -114 l0 -40 -35
60 -34 60 -1 -132 0 -133 46 -42 c77 -71 99 -138 46 -138 l-29 0 1 -95 1 -95
79 0 79 0 -7 70 c-4 45 -2 70 4 70 5 0 10 11 10 25 0 21 -5 25 -30 25 -16 0
-30 2 -30 5 0 17 41 102 82 168 31 53 49 94 53 125 5 46 23 106 61 204 15 38
16 50 6 60 -35 35 -114 -70 -162 -217 l-29 -90 -1 85 c0 185 -34 339 -93 427
-23 35 -39 49 -59 51 l-28 3 0 -135z m177 -468 c-3 -8 -6 -5 -6 6 -1 11 2 17
5 13 3 -3 4 -12 1 -19z m-18 -78 c-9 -6 -10 -27 -6 -74 5 -54 4 -66 -8 -66
-12 0 -15 17 -15 86 0 76 2 85 15 74 13 -10 15 -9 16 11 l2 24 4 -24 c3 -13
-1 -27 -8 -31z"/>
</g>
</svg>
